Coordinates
version=1
nRows=14
nColumns=36
inDegrees=yes

Units are S.I. units (second, meters, Newtons, ...)
If the header above contains a line with 'inDegrees', this indicates whether rotational values are in degrees (yes) or radians (no).

endheader
time	pelvis_tilt	pelvis_list	pelvis_rotation	pelvis_tx	pelvis_ty	pelvis_tz	hip_flexion_r	hip_adduction_r	hip_rotation_r	knee_angle_r	knee_angle_r_beta	ankle_angle_r	subtalar_angle_r	mtp_angle_r	hip_flexion_l	hip_adduction_l	hip_rotation_l	knee_angle_l	knee_angle_l_beta	ankle_angle_l	subtalar_angle_l	mtp_angle_l	lumbar_extension	lumbar_bending	lumbar_rotation	arm_flex_r	arm_add_r	arm_rot_r	elbow_flex_r	pro_sup_r	arm_flex_l	arm_add_l	arm_rot_l	elbow_flex_l	pro_sup_l
      0.90000000	     -5.72448902	      0.25519112	      4.83284936	      1.08162227	      0.87203102	     -0.17040619	     32.15336725	     -2.82593450	     -5.96922644	     14.90228759	      0.26009398	      3.07179782	     -5.28535325	     -7.49972246	     -2.03782520	      2.27802131	      5.50850369	     12.09380176	      0.21107666	     21.02114661	      0.95386263	     -7.49972246	      1.46235253	     -0.49276545	     -8.80815511	     -2.43576883	     -8.66046925	    -22.54975572	      9.30799972	     92.35817562	     17.47045569	    -14.11307888	     14.82265856	     36.34571743	     93.93885317
      0.91000000	     -6.03648763	      0.46130119	      5.18962190	      1.09539894	      0.86968729	     -0.16914333	     32.64854883	     -3.05333653	     -6.15004781	     12.45928699	      0.21745558	      2.91875797	     -4.30657206	     -7.49972338	     -2.89375158	      2.33754015	      5.70738719	     11.71443434	      0.20445545	     21.45159171	      1.27510312	     -7.49972338	      1.72167049	     -0.83099143	     -9.07464767	     -2.61535748	     -8.64145377	    -22.85822953	      8.94757878	     92.76909399	     18.51232701	    -14.11802714	     14.84356877	     37.11206794	     94.25389793
      0.92000000	     -6.26420733	      0.67980976	      5.50129017	      1.10948485	      0.86729412	     -0.16782704	     33.04351331	     -3.22918706	     -6.37113865	     10.38697551	      0.18128692	      2.81968102	     -3.16666430	     -7.49980293	     -3.84375450	      2.37571274	      5.79833501	     11.38366493	      0.19868243	     21.84906750	      1.75397161	     -7.49980293	      1.84104115	     -1.16314531	     -9.19293157	     -2.87223371	     -8.46902109	    -24.82476207	      9.00934711	     92.36862652	     19.55577692	    -14.28250233	     15.54066840	     38.02020822	     93.54325539
      0.93000000	     -6.51265396	      0.79991362	      5.89144486	      1.12383837	      0.86486928	     -0.16674123	     33.40432874	     -3.30811124	     -6.49289942	      8.67738051	      0.15144886	      2.69724246	     -2.39011819	     -7.49981464	     -4.68944031	      2.29922533	      6.08772092	     11.23782092	      0.19613698	     22.19072964	      2.05255906	     -7.49981464	      2.06704975	     -1.34485514	    -10.01364847	     -2.70774522	     -8.44203416	    -24.51134702	      8.68692358	     89.68619386	     19.84036871	    -14.52281458	     14.86762928	     39.32606833	     90.87492148
      0.94000000	     -6.77991809	      0.86388976	      6.20736740	      1.13834701	      0.86239520	     -0.16575071	     33.81231904	     -3.30391590	     -6.86056986	      7.45848663	      0.13017515	      2.64387734	     -1.28554628	     -7.49989390	     -5.44464825	      2.15317090	      6.21339908	     11.25671165	      0.19646668	     22.48046802	      2.40775734	     -7.49989390	      2.32104778	     -1.49901963	    -10.08437555	     -2.95823742	     -8.28554250	    -28.88693689	      8.74817184	     94.98435686	     20.51683101	    -14.26283450	     13.76469758	     40.12027741	     95.16705630
      0.95000000	     -7.03630798	      0.84788335	      6.49477079	      1.15297132	      0.85994310	     -0.16480981	     34.20725863	     -3.16915758	     -6.95163307	      6.69283985	      0.11681209	      2.39723440	     -0.84207203	     -7.49989605	     -6.12484694	      1.91202120	      6.34706071	     11.46442131	      0.20009190	     22.71304442	      2.62966308	     -7.49989605	      2.65690526	     -1.53692975	    -10.29537959	     -3.16031575	     -8.33351037	    -29.07495472	      8.64661667	     94.94696452	     21.09504621	    -14.19061217	     13.65309854	     40.62819901	     95.02481130
      0.96000000	     -7.21025788	      0.75311703	      6.75880913	      1.16770229	      0.85765364	     -0.16394518	     34.51929189	     -2.94995020	     -7.12126704	      6.40695346	      0.11182243	      2.20837601	     -0.49012501	     -7.49989881	     -6.78453915	      1.55518683	      6.36260750	     11.87292554	      0.20722164	     22.91310392	      2.98073269	     -7.49989881	      2.90989650	     -1.43966442	    -10.56528879	     -3.25532843	     -8.40804090	    -29.41797013	      8.49594878	     94.78202289	     21.51119355	    -14.12801295	     13.42327208	     41.18583394	     94.78196346
      0.97000000	     -7.26718759	      0.57301622	      6.99459842	      1.18248260	      0.85560491	     -0.16315276	     34.71396999	     -2.62965776	     -7.24158831	      6.57610561	      0.11477469	      2.07012099	     -0.27956989	     -7.49991065	     -7.45915466	      1.11276244	      6.48735945	     12.47342432	      0.21770232	     22.93847280	      2.93061898	     -7.49991065	      3.06497555	     -1.20943929	    -11.07422311	     -3.05758431	     -8.49789898	    -29.84556758	      8.10785763	     92.48970971	     21.69024875	    -14.12224265	     12.92516501	     41.79229807	     92.57737189
      0.98000000	     -7.43825658	      0.34454372	      7.05800219	      1.19755496	      0.85346729	     -0.16212560	     35.05906877	     -2.18962735	     -7.24190991	      7.14021368	      0.12462024	      1.70723320	     -0.43537221	     -7.49991544	     -7.87531057	      0.58404435	      6.00251780	     13.36605665	      0.23328170	     23.01425779	      3.77934048	     -7.49991544	      3.42898851	     -0.87772985	    -11.27002867	     -3.03215560	     -8.58923972	    -30.77002643	      7.92675756	     92.72824576	     21.69677278	    -14.01121389	     12.26063690	     42.27953007	     92.74773703
      0.99000000	     -7.46382565	     -0.00559966	      7.20258166	      1.21284064	      0.85171749	     -0.16131300	     35.20744853	     -1.68778671	     -7.24534134	      8.02492777	      0.14006141	      1.33251460	     -0.70374713	     -7.49991713	     -8.27236545	     -0.04756934	      5.92792746	     14.51230526	      0.25328751	     22.82712981	      3.69448358	     -7.49991713	      3.61381207	     -0.38051260	    -11.41912697	     -3.22007791	     -8.75339657	    -31.05959535	      8.05696509	     92.68302657	     21.88078804	    -13.79089578	     12.00591283	     42.53309761	     92.68123534
      1.00000000	     -7.49362968	     -0.38490518	      7.23235993	      1.22847366	      0.85013165	     -0.16031819	     35.37379484	     -1.09965638	     -7.04402997	      9.19627276	      0.16050524	      0.83867006	     -1.34973408	     -7.49992990	     -8.52974457	     -0.72579189	      5.57461843	     15.89629035	      0.27744261	     22.40785967	      3.80547663	     -7.49992990	      3.90181496	      0.14802848	    -11.91981800	     -2.83338762	     -8.89072729	    -33.85827349	      7.64604704	     93.61020361	     21.38495808	    -13.53080619	      9.95745729	     43.11933469	     93.39085377
      1.01000000	     -7.38828510	     -0.80306532	      7.21864776	      1.24440424	      0.84901182	     -0.15935980	     35.38222014	     -0.47376194	     -6.96150100	     10.58488050	      0.18474102	      0.51745167	     -1.72519737	     -7.49993101	     -8.74747741	     -1.44107579	      5.21219655	     17.55949801	      0.30647106	     21.62217172	      3.70641631	     -7.49993101	      4.01077195	      0.78919556	    -11.90933123	     -2.97954940	     -9.05230999	    -33.94270193	      7.99321861	     93.52635632	     21.39149106	    -13.32351037	      9.89448891	     43.16289862	     93.28112256
      1.02000000	     -7.34385120	     -1.26363140	      7.15645170	      1.26072263	      0.84811595	     -0.15833195	     35.41415326	      0.23580592	     -6.56135072	     12.06778436	      0.21062257	      0.02984471	     -2.73237703	     -7.49993292	     -8.64207769	     -2.19556900	      4.74673030	     19.67357026	      0.34336858	     20.77814140	      3.68702953	     -7.49993292	      4.29705079	      1.43255913	    -11.76534136	     -3.06522777	     -9.27793206	    -34.22886744	      7.82997647	     93.49915136	     21.28930387	    -12.93171800	      9.49845532	     42.97608551	     93.17730812
      1.03000000	     -7.28505179	     -1.70309108	      7.01204616	      1.27730190	      0.84775245	     -0.15724131	     35.39225426	      0.97016687	     -6.12051971	     13.59951514	      0.23735632	     -0.42264267	     -3.71372729	     -7.49993540	     -8.35730963	     -2.94072451	      4.10180778	     22.04085693	      0.38468552	     19.29499187	      3.58757345	     -7.49993540	      4.62916877	      2.03575348	    -11.68546032	     -3.01513515	     -9.49691139	    -34.65850593	      7.55677797	     93.55607654	     20.98011007	    -12.56191869	      8.81071274	     42.60125269	     93.12193640
